<svg xmlns="http://www.w3.org/2000/svg" width="50" height="50" fill="none"><g clip-path="url(#a)"><g filter="url(#b)"><rect width="50" height="50" fill="url(#c)" rx="8.333"/></g><mask id="f" width="50" height="50" x="0" y="0" maskUnits="userSpaceOnUse" style="mask-type:alpha"><rect width="48" height="48" x="1" y="1" fill="url(#d)" stroke="#5A5AE2" stroke-width="2" rx="7.333"/></mask><g fill="#fff" fill-opacity=".03" filter="url(#e)" mask="url(#f)" shape-rendering="crispEdges"><path d="M2.086 10.339C-11.492 3.578-2.477-3.371 3.728-6c0 4.883.657 13.634 3.285 9.578 2.628-4.057 7.665-.94 9.854 1.127.73 4.695-1.204 12.394-14.782 5.634Zm-.492 36.319C-20.623 35.627-5.87 24.29 4.282 20c0 7.967 1.075 22.245 5.375 15.627 4.3-6.619 12.543-1.532 16.126 1.838 1.195 7.66-1.97 20.223-24.189 9.193Zm33-33C12.377 2.627 27.13-8.71 37.282-13c0 7.967 1.075 22.245 5.375 15.627 4.3-6.619 12.543-1.532 16.126 1.838 1.195 7.66-1.97 20.224-24.189 9.193Z"/><path d="M32.527 44.817C6.606 31.651 23.817 18.12 35.662 13c0 9.509 1.255 26.55 6.272 18.651 5.017-7.899 14.632-1.828 18.813 2.195 1.394 9.143-2.3 24.137-28.22 10.971Z"/></g><rect width="48" height="48" x="1" y="1" stroke="#5A5AE2" stroke-width="2" rx="9"/><g filter="url(#g)"><path fill="url(#h)" d="M21.412 30.941C27 25.53 35.647 26.471 36.176 26.53c.118.06.236 0 .353-.058a.441.441 0 0 0 0-.53l-7.647-7.647-7.647-7.588c-.059-.118-.176-.118-.294-.118-.176 0-.294.177-.294.412s1.235 9.059-4.353 14.765c.118.058.177.117.294.235l4.647 4.647c.06.059.177.177.177.294Z"/><path fill="url(#i)" d="m16.059 26.47 4.706 4.648c.117.176.117.411 0 .529L19 33.412a3.65 3.65 0 0 1-2.588 1.059 3.65 3.65 0 0 1-2.588-1.06c-.706-.705-1.118-1.646-1.118-2.588 0-.94.412-1.882 1.118-2.588l1.764-1.764a.275.275 0 0 1 .47 0Z"/><path fill="url(#j)" d="M30.765 16.412a4.641 4.641 0 0 1 1.294 2.412 5.64 5.64 0 0 1 .059 1.705l-5.47-5.411a4.162 4.162 0 0 1 1.705 0c.882.235 1.765.647 2.412 1.294Z"/><path fill="url(#k)" d="M35.294 12.412a.358.358 0 0 0 0-.47c-.118-.177-.353-.177-.53 0L33 13.705c-.118.117-.118.353 0 .53a.358.358 0 0 0 .47 0l1.824-1.824Z"/><path fill="url(#l)" d="M36.882 17.059c.236 0 .412-.177.412-.353 0-.235-.176-.353-.412-.353h-2.53c-.175 0-.352.118-.352.353a.38.38 0 0 0 .353.353h2.53Z"/><path fill="url(#m)" d="M34.765 21.47c.176.118.411.118.53 0a.441.441 0 0 0 0-.529l-1.824-1.764a.275.275 0 0 0-.471 0 .358.358 0 0 0 0 .47l1.765 1.824Z"/><path fill="url(#n)" d="M26.235 11.941a.275.275 0 0 0-.47 0 .275.275 0 0 0 0 .47l1.764 1.824a.441.441 0 0 0 .53 0c.117-.176.117-.412 0-.53l-1.824-1.764Z"/><path fill="url(#o)" d="M30.882 10.294a.38.38 0 0 0-.353-.353c-.235 0-.352.177-.352.353v2.53c0 .176.117.353.352.353a.38.38 0 0 0 .353-.354v-2.529Z"/><path fill="url(#p)" d="m21.412 31.941-.177.177-1.764 1.764c-.118.177-.294.294-.471.412l6.765 5.647a.275.275 0 0 0 .47 0l2.353-2.353h.06c.117-.176.117-.412-.06-.53l-6.53-5.764c-.058.059-.117.059-.117.118l-.53.53Z"/></g></g><defs><linearGradient id="c" x1="5" x2="44.5" y1="4" y2="47.5" gradientUnits="userSpaceOnUse"><stop stop-color="#3B3B94"/><stop offset="1" stop-color="#323295"/></linearGradient><linearGradient id="d" x1="5" x2="44.5" y1="4" y2="47.5" gradientUnits="userSpaceOnUse"><stop stop-color="#3B3B94"/><stop offset="1" stop-color="#323295"/></linearGradient><linearGradient id="h" x1="23.15" x2="27.668" y1="10.966" y2="31.355" gradientUnits="userSpaceOnUse"><stop stop-color="#CACAFF"/><stop offset="1" stop-color="#D9D9E9"/></linearGradient><linearGradient id="i" x1="15.454" x2="17.254" y1="26.489" y2="34.639" gradientUnits="userSpaceOnUse"><stop stop-color="#CACAFF"/><stop offset="1" stop-color="#D9D9E9"/></linearGradient><linearGradient id="j" x1="28.506" x2="29.723" y1="15.131" y2="20.643" gradientUnits="userSpaceOnUse"><stop stop-color="#CACAFF"/><stop offset="1" stop-color="#D9D9E9"/></linearGradient><linearGradient id="k" x1="33.745" x2="34.312" y1="11.855" y2="14.371" gradientUnits="userSpaceOnUse"><stop stop-color="#CACAFF"/><stop offset="1" stop-color="#D9D9E9"/></linearGradient><linearGradient id="l" x1="35.111" x2="35.146" y1="16.366" y2="17.106" gradientUnits="userSpaceOnUse"><stop stop-color="#CACAFF"/><stop offset="1" stop-color="#D9D9E9"/></linearGradient><linearGradient id="m" x1="33.745" x2="34.312" y1="19.091" y2="21.606" gradientUnits="userSpaceOnUse"><stop stop-color="#CACAFF"/><stop offset="1" stop-color="#D9D9E9"/></linearGradient><linearGradient id="n" x1="26.481" x2="27.038" y1="11.855" y2="14.375" gradientUnits="userSpaceOnUse"><stop stop-color="#CACAFF"/><stop offset="1" stop-color="#D9D9E9"/></linearGradient><linearGradient id="o" x1="30.415" x2="32.115" y1="10.001" y2="11.677" gradientUnits="userSpaceOnUse"><stop stop-color="#CACAFF"/><stop offset="1" stop-color="#D9D9E9"/></linearGradient><linearGradient id="p" x1="22.282" x2="24.054" y1="31.457" y2="40.33" gradientUnits="userSpaceOnUse"><stop stop-color="#CACAFF"/><stop offset="1" stop-color="#D9D9E9"/></linearGradient><filter id="b" width="58" height="58" x="-4" y="-4" color-interpolation-filters="sRGB" filterUnits="userSpaceOnUse"><feFlood flood-opacity="0" result="BackgroundImageFix"/><feBlend in="SourceGraphic" in2="BackgroundImageFix" result="shape"/><feColorMatrix in="SourceAlpha" result="hardAlpha" values="0 0 0 0 0 0 0 0 0 0 0 0 0 0 0 0 0 0 127 0"/><feOffset dx="4" dy="4"/><feGaussianBlur stdDeviation="2"/><feComposite in2="hardAlpha" k2="-1" k3="1" operator="arithmetic"/><feColorMatrix values="0 0 0 0 0.0692708 0 0 0 0 0.0692708 0 0 0 0 0.2375 0 0 0 1 0"/><feBlend in2="shape" result="effect1_innerShadow_157_4513"/><feColorMatrix in="SourceAlpha" result="hardAlpha" values="0 0 0 0 0 0 0 0 0 0 0 0 0 0 0 0 0 0 127 0"/><feOffset dx="-4" dy="-4"/><feGaussianBlur stdDeviation="2"/><feComposite in2="hardAlpha" k2="-1" k3="1" operator="arithmetic"/><feColorMatrix values="0 0 0 0 0.0705882 0 0 0 0 0.0705882 0 0 0 0 0.239216 0 0 0 1 0"/><feBlend in2="effect1_innerShadow_157_4513" result="effect2_innerShadow_157_4513"/></filter><filter id="e" width="79" height="72" x="-14" y="-13" color-interpolation-filters="sRGB" filterUnits="userSpaceOnUse"><feFlood flood-opacity="0" result="BackgroundImageFix"/><feColorMatrix in="SourceAlpha" result="hardAlpha" values="0 0 0 0 0 0 0 0 0 0 0 0 0 0 0 0 0 0 127 0"/><feOffset dy="4"/><feGaussianBlur stdDeviation="2"/><feComposite in2="hardAlpha" operator="out"/><feColorMatrix values="0 0 0 0 0 0 0 0 0 0 0 0 0 0 0 0 0 0 0.1 0"/><feBlend in2="BackgroundImageFix" result="effect1_dropShadow_157_4513"/><feBlend in="SourceGraphic" in2="effect1_dropShadow_157_4513" result="shape"/></filter><filter id="g" width="28.588" height="34.132" x="10.706" y="9.941" color-interpolation-filters="sRGB" filterUnits="userSpaceOnUse"><feFlood flood-opacity="0" result="BackgroundImageFix"/><feColorMatrix in="SourceAlpha" result="hardAlpha" values="0 0 0 0 0 0 0 0 0 0 0 0 0 0 0 0 0 0 127 0"/><feOffset dy="2"/><feGaussianBlur stdDeviation="1"/><feComposite in2="hardAlpha" operator="out"/><feColorMatrix values="0 0 0 0 0 0 0 0 0 0 0 0 0 0 0 0 0 0 0.8 0"/><feBlend in2="BackgroundImageFix" result="effect1_dropShadow_157_4513"/><feBlend in="SourceGraphic" in2="effect1_dropShadow_157_4513" result="shape"/></filter><clipPath id="a"><rect width="50" height="50" fill="#fff" rx="10"/></clipPath></defs></svg>